<svg version="1.1" id="Layer_1" xmlns:x="ns_extend;" xmlns:i="ns_ai;" xmlns:graph="ns_graphs;" xmlns="http://www.w3.org/2000/svg" xmlns:xlink="http://www.w3.org/1999/xlink" x="0px" y="0px" viewBox="0 0 199.8 64" style="enable-background:new 0 0 199.8 64;" xml:space="preserve">
 <style type="text/css">
  .st0{clip-path:url(#SVGID_2_);}
	.st1{fill:#7C47E1;}
	.st2{fill:#FFFFFF;}
	.st3{fill:#0FA457;}
 </style>
 <metadata>
  <sfw xmlns="ns_sfw;">
   <slices>
   </slices>
   <sliceSourceBounds bottomLeftOrigin="true" height="64" width="199.8" x="100.8" y="-232.2">
   </sliceSourceBounds>
  </sfw>
 </metadata>
 <g>
  <g>
   <defs>
    <rect id="SVGID_1_" x="0" width="199.8" height="64">
    </rect>
   </defs>
   <clipPath id="SVGID_2_">
    <use href="#SVGID_1_" style="overflow:visible;">
    </use>
   </clipPath>
   <g class="st0">
    <path class="st1" d="M167.8,0L31.9,0.3c-8.5,0-16.6,3.4-22.6,9.4S0,23.9,0,32.4c0,4.2,0.8,8.3,2.4,12.2c1.6,3.9,3.9,7.4,6.9,10.3
				c2.9,2.9,6.4,5.3,10.3,6.8c3.9,1.6,8,2.4,12.1,2.3l135.9-0.3c17.6,0,32.3-14,32.3-31.7c0-8.5-3.4-16.6-9.4-22.6
				C184.4,3.3,176.2,0,167.8,0z">
    </path>
    <path class="st2" d="M166.6,55.9c-4.7,0-9.3-1.4-13.2-4c-3.9-2.6-7-6.3-8.8-10.7c-1.8-4.4-2.3-9.2-1.4-13.8
				c0.9-4.6,3.2-8.9,6.5-12.2c3.3-3.3,7.6-5.6,12.2-6.6c4.6-0.9,9.4-0.5,13.8,1.3s8.1,4.9,10.7,8.8c2.6,3.9,4,8.5,4,13.3
				c0,6.3-2.5,12.4-7,16.9C179,53.3,172.9,55.8,166.6,55.9z">
    </path>
    <path class="st3" d="M182.4,35.6c2-8.8-3.4-17.5-12.2-19.5s-17.5,3.4-19.5,12.2c-2,8.8,3.4,17.5,12.2,19.5
				C171.6,49.9,180.4,44.4,182.4,35.6z">
    </path>
    <path class="st2" d="M57,32.2c0-5.5-1.9-10.8-5.3-15.1c-3.5-4.3-8.3-7.2-13.6-8.3C32.6,7.7,27,8.4,22.2,11
				c-4.9,2.5-8.7,6.7-10.9,11.7c-2.2,5-2.6,10.7-1.1,16c1.5,5.3,4.7,9.9,9.2,13.1c4.5,3.2,9.9,4.7,15.4,4.3s10.6-2.6,14.7-6.3v2.5
				c0,1,0.5,1.9,1.2,2.6c0.7,0.7,1.7,1.1,2.6,1.1c1,0,1.9-0.4,2.6-1.1c0.7-0.7,1.1-1.6,1.2-2.6V33c0-0.1,0-0.1,0-0.2
				C57,32.6,57,32.4,57,32.2z M33.2,48.4c-3.2,0-6.3-0.9-9-2.7c-2.7-1.8-4.7-4.3-6-7.3c-1.2-3-1.6-6.2-0.9-9.4s2.1-6,4.4-8.3
				c2.3-2.3,5.1-3.8,8.3-4.5c3.1-0.6,6.4-0.3,9.3,0.9c3,1.2,5.5,3.3,7.3,6c1.8,2.7,2.7,5.8,2.7,9c0,4.3-1.7,8.4-4.7,11.5
				C41.6,46.7,37.5,48.4,33.2,48.4z">
    </path>
    <path class="st2" d="M86,56c-3.9,0-7.7-0.9-11.2-2.7c-3.4-1.8-6.4-4.4-8.6-7.6c-2.2-3.2-3.6-6.9-4.1-10.8
				c-0.5-3.9,0-7.8,1.4-11.4c1.4-3.6,3.6-6.9,6.5-9.5c2.9-2.6,6.4-4.4,10.2-5.3c3.8-0.9,7.7-0.9,11.5,0c3.8,1,7.3,2.8,10.1,5.4
				c0.4,0.3,0.7,0.7,1,1.2c0.2,0.5,0.4,1,0.4,1.5c0,0.5,0,1-0.2,1.5c-0.2,0.5-0.4,1-0.8,1.3c-0.3,0.4-0.8,0.7-1.2,0.9
				c-0.5,0.2-1,0.3-1.5,0.4c-0.5,0-1-0.1-1.5-0.3c-0.5-0.2-0.9-0.5-1.3-0.8c-2.3-2.1-5.2-3.5-8.3-4c-3.1-0.5-6.3-0.1-9.2,1.2
				c-2.9,1.3-5.3,3.4-7,6c-1.7,2.6-2.6,5.7-2.6,8.9c0,3.2,0.9,6.2,2.6,8.9c1.7,2.6,4.2,4.7,7,6c2.9,1.3,6.1,1.7,9.2,1.2
				c3.1-0.5,6-1.9,8.3-4c0.8-0.6,1.7-1,2.7-0.9c1,0.1,1.9,0.5,2.6,1.3c0.7,0.7,1,1.7,1,2.7c0,1-0.4,1.9-1.2,2.6
				C97.6,53.8,91.9,56,86,56z">
    </path>
    <path class="st2" d="M143.1,48.9l-20.7-17.3l20.6-17c0.8-0.7,1.3-1.6,1.4-2.6c0.1-1-0.2-2-0.9-2.8c-0.6-0.8-1.6-1.3-2.6-1.4
				c-1-0.1-2,0.2-2.8,0.9l-22.3,18.6V11.7c0-1-0.4-2-1.1-2.7C114,8.2,113,7.8,112,7.8s-2,0.4-2.7,1.1c-0.7,0.7-1.1,1.7-1.1,2.7
				l0.1,40.2c0,1,0.5,1.9,1.2,2.6c0.7,0.7,1.7,1.1,2.6,1.1c1,0,1.9-0.4,2.6-1.1c0.7-0.7,1.1-1.6,1.2-2.6V36.3l22.4,18.5
				c0.4,0.4,0.8,0.7,1.3,0.9c0.5,0.2,1,0.3,1.6,0.3c0.5,0,1.1-0.2,1.5-0.4c0.5-0.2,0.9-0.6,1.2-1c0.3-0.4,0.6-0.9,0.7-1.4
				c0.1-0.5,0.2-1.1,0.1-1.6s-0.3-1-0.6-1.5C143.9,49.6,143.6,49.2,143.1,48.9z">
    </path>
   </g>
  </g>
 </g>
</svg>