<svg version="1.1" id="Layer_1" xmlns:x="ns_extend;" xmlns:i="ns_ai;" xmlns:graph="ns_graphs;" xmlns="http://www.w3.org/2000/svg" xmlns:xlink="http://www.w3.org/1999/xlink" x="0px" y="0px" viewBox="0 0 430.8 80" style="enable-background:new 0 0 430.8 80;" xml:space="preserve">
 <metadata>
  <sfw xmlns="ns_sfw;">
   <slices>
   </slices>
   <sliceSourceBounds bottomLeftOrigin="true" height="80" width="430.8" x="-15.1" y="-238.8">
   </sliceSourceBounds>
  </sfw>
 </metadata>
 <g>
  <path d="M81.8,1.2v12.9h25.9v64.7h12.9V14.1h25.9V1.2H81.8z M0,1.2v77.7h57.3V65.9H12.9V46.5h38.6V33.5H12.9V14.1h44.4V1.2H0z
		 M224.2,1.2v32.4h-38.8V1.2h-12.9v77.7h12.9V46.5h38.8v32.4h12.9V1.2H224.2L224.2,1.2z M336.2,8.5c-11-11-28.9-11-40,0c0,0,0,0,0,0
		c-1.6,1.6-4.9,5.3-6.1,7.2c13.3-8.2,30.7-4.1,38.9,9.2c5.6,9,5.6,20.5,0.1,29.5l0.4-0.4c1.9-1.1,5-3.8,6.7-5.5
		C347.2,37.4,347.2,19.5,336.2,8.5C336.2,8.5,336.2,8.5,336.2,8.5">
  </path>
  <path d="M288.2,56.4c-11.1-11.1-17.9-31.5-5.4-53.2L277,9.1c-16.2,16.2-16.2,42.4,0,58.5c16.2,16.2,42.4,16.2,58.5,0l5.9-5.9
		C320.8,73.8,300.3,68.5,288.2,56.4 M399.9,80c18.8,0,30.9-9.3,30.9-23.7c0-13.5-9.5-18.4-24.8-21.9l-9.4-2.1c-8.5-1.9-13-4-13-10.2
		c0-6.2,5.8-10.3,14.8-10.3c8.4,0,15.8,3.1,20.4,8.6l9.8-7.8C423.1,6.8,413.6,0,398.7,0c-16.9,0-29.1,9.6-29.1,22.8
		c0,15.1,12.4,19.7,23.1,22l10.4,2.3c8.2,1.8,13.7,4.2,13.7,10.4c0,6.6-5.9,10.4-16.3,10.4c-11.3,0-19.9-5.6-23.4-11.2l-10.7,7.7
		C371.9,72,383.5,80,399.9,80">
  </path>
 </g>
</svg>