<svg version="1.1" id="Layer_1" xmlns:x="ns_extend;" xmlns:i="ns_ai;" xmlns:graph="ns_graphs;" xmlns="http://www.w3.org/2000/svg" xmlns:xlink="http://www.w3.org/1999/xlink" x="0px" y="0px" viewBox="0 0 273 42" style="enable-background:new 0 0 273 42;" xml:space="preserve">
 <style type="text/css">
  .st0{fill:#FF8300;}
	.st1{fill:#53565A;}
	.st2{fill:#00A7CE;}
 </style>
 <metadata>
  <sfw xmlns="ns_sfw;">
   <slices>
   </slices>
   <sliceSourceBounds bottomLeftOrigin="true" height="42" width="273" x="-58.5" y="-9">
   </sliceSourceBounds>
  </sfw>
 </metadata>
 <g>
  <path class="st0" d="M16.2,11.6c-0.4,0.9-1,1.8-1.8,2.6c-1.8,1.7-4,2.4-6.3,2.5l8.6,8.4c0.1-2.2,0.8-4.4,2.6-6.1
		c0.8-0.8,1.7-1.3,2.7-1.8C19.3,16.3,17.2,14.2,16.2,11.6z">
  </path>
  <path class="st0" d="M14.3,30.6c3.3-3.2,3.3-8.4,0-11.5c-3.3-3.2-8.6-3.2-11.9,0c-3.3,3.2-3.3,8.4,0,11.5
		C5.7,33.8,11,33.8,14.3,30.6z">
  </path>
  <path class="st1" d="M31.3,2.6c3.3,3.2,3.3,8.4,0,11.5c-3.3,3.2-8.6,3.2-11.9,0c-3.3-3.2-3.3-8.4,0-11.5
		C22.7-0.6,28.1-0.6,31.3,2.6z">
  </path>
  <path class="st2" d="M65.3,2.6c-3.3-3.2-8.6-3.2-11.9,0c-1.6,1.6-2.4,3.5-2.4,5.5c-0.1,2.2-0.8,4.4-2.6,6.1
		c-0.8,0.8-1.7,1.4-2.7,1.8c2.7,0.9,4.8,3,5.8,5.6c0.4-0.9,1-1.8,1.8-2.6c1.8-1.7,4-2.4,6.3-2.5c2.1,0,4.1-0.9,5.7-2.4
		C68.6,10.9,68.6,5.8,65.3,2.6z M62.4,11.3c-0.8,0.8-1.9,1.2-3,1.2c-1.2,0-2.2-0.4-3-1.2c-1.7-1.6-1.7-4.3,0-5.9
		c0.8-0.8,1.9-1.2,3-1.2c1.2,0,2.2,0.4,3,1.2c0.8,0.8,1.2,1.9,1.2,2.9C63.7,9.5,63.3,10.5,62.4,11.3z">
  </path>
  <path class="st1" d="M48.3,19.1c3.3,3.2,3.3,8.4,0,11.5c-3.3,3.2-8.6,3.2-11.9,0c-3.3-3.2-3.3-8.4,0-11.5
		C39.7,15.9,45.1,15.9,48.3,19.1z">
  </path>
  <path class="st1" d="M36.4,14.2c-1.8-1.7-2.5-3.9-2.6-6.1l-8.7,8.4c2.3,0.1,4.5,0.8,6.3,2.5c1.8,1.7,2.5,3.9,2.6,6.1l8.6-8.4
		C40.4,16.6,38.1,15.9,36.4,14.2z">
  </path>
  <path class="st1" d="M138.1,33.2c-4.3,0-6.9-2.5-6.9-6.6V1.8c0-1,0.8-1.7,1.8-1.7c1,0,1.8,0.8,1.8,1.7v8.4h6.2
		c0.9,0,1.7,0.8,1.7,1.7c0,0.9-0.8,1.6-1.7,1.6h-6.2v12.9c0,2.4,1.2,3.5,3.7,3.5c0.9,0,1.5-0.2,1.9-0.3c0.2-0.1,0.4-0.1,0.6-0.1
		c0.9,0,1.7,0.8,1.7,1.6c0,0.7-0.4,1.2-1.2,1.5C140.6,32.9,139.5,33.2,138.1,33.2z">
  </path>
  <path class="st1" d="M156.9,33.2c-3.1,0-6.6-1.2-9-2.9c-0.3-0.2-0.7-0.8-0.7-1.3c0-0.9,0.8-1.7,1.8-1.7c0.4,0,0.8,0.1,1.1,0.3
		c2.2,1.6,4.5,2.3,7,2.3c2.7,0,4.6-1.4,4.6-3.4v-0.1c0-1.9-1.9-2.7-5.4-3.7l-0.1,0l-0.1,0c-3.5-1-7.9-2.2-7.9-6.5v-0.1
		c0-3.8,3.4-6.6,8-6.6c2.4,0,5.2,0.7,7.5,2l0,0c0.6,0.4,0.9,0.9,0.9,1.5c0,0.9-0.8,1.7-1.8,1.7c-0.4,0-0.7-0.1-1-0.3
		c-1.9-1.1-3.9-1.7-5.8-1.7c-2.6,0-4.3,1.2-4.3,3.1v0.1c0,1.8,2.3,2.6,5.7,3.5c2.9,0.8,7.8,2.1,7.8,6.7v0.1
		C165.2,30.2,161.7,33.2,156.9,33.2z">
  </path>
  <path class="st1" d="M172.9,33c-1,0-1.8-0.7-1.8-1.7V1.8c0-1,0.8-1.8,1.8-1.8c1,0,1.8,0.8,1.8,1.8v29.4
		C174.7,32.2,173.9,33,172.9,33z">
  </path>
  <path class="st1" d="M206.3,33.3c-6.7,0-12-5.2-12-11.9v-0.1c0-6.7,5.3-12,12.1-12c6.7,0,12,5.2,12,11.9v0.1
		C218.5,28,213.1,33.3,206.3,33.3z M206.3,12.7c-4.7,0-8.3,3.7-8.3,8.6v0.1c0,4.8,3.7,8.7,8.4,8.7c4.7,0,8.3-3.7,8.3-8.6v-0.1
		C214.7,16.5,211.1,12.7,206.3,12.7z">
  </path>
  <path class="st1" d="M114.4,33.3c-6.6,0-11.6-5.1-11.6-11.9v-0.1c0-6.7,4.9-11.9,11.2-11.9s10.8,5,10.8,11.8c0,0.9-0.8,1.7-1.8,1.7
		h-12c-1,0-1.7-0.7-1.7-1.6c0-0.9,0.7-1.6,1.7-1.6h10.1c-0.5-3.4-2.6-7-7.2-7c-3.8,0-6.8,2.9-7.4,7.1l-0.1,0.7c-0.1,0.7-0.1,1.4,0,2
		v0c0.4,4.4,3.7,7.5,7.9,7.5c2.6,0,4.7-0.9,6.7-2.8c0.4-0.3,0.8-0.5,1.2-0.5c1,0,1.8,0.7,1.8,1.7c0,0.3-0.1,0.8-0.6,1.2
		C120.9,32.2,118.2,33.3,114.4,33.3z">
  </path>
  <path class="st1" d="M224.8,42c-1,0-1.8-0.7-1.8-1.8v-20c0-6.6,5.2-10.9,11.4-10.9c6.7,0,12,5.2,12,11.9v0.1c0,6.7-5.3,12-12.1,12
		c-3.1,0-5.8-1.1-7.8-3.1v10C226.6,41.3,225.9,42,224.8,42z M226.6,22.3c0.4,4.4,3.4,7.4,7.5,7.6c0.1,0,0.3,0,0.4,0
		c1.5,0,2.8-0.3,4-1c0.1-0.1,0.2-0.1,0.4-0.2c1-0.6,1.8-1.5,2.4-2.5c0.1-0.1,0.1-0.2,0.2-0.3c0.1-0.2,0.3-0.5,0.4-0.7
		c0.5-1.2,0.8-2.4,0.8-3.7v-0.1c0-1-0.2-2.1-0.5-3c-0.1-0.3-0.2-0.5-0.3-0.8c-0.1-0.3-0.2-0.5-0.4-0.7c-0.8-1.3-1.8-2.4-3.1-3.1
		c-0.1-0.1-0.2-0.1-0.4-0.2c-0.2-0.1-0.5-0.2-0.8-0.3c-0.5-0.2-1.1-0.3-1.6-0.4c-0.3,0-0.6-0.1-0.8-0.1c-0.1,0-0.3,0-0.4,0
		c-4.3,0-7.4,3.1-7.8,7.6L226.6,22.3L226.6,22.3z">
  </path>
  <path class="st1" d="M190.2,33c-0.5,0-0.9-0.2-1.3-0.5l-11-10.8c-0.7-0.6-0.7-1.6-0.1-2.3l0-0.1l10-9c0.3-0.3,0.7-0.5,1.2-0.6
		c0.5,0,0.9,0.1,1.3,0.4c0.8,0.6,0.8,1.7,0.2,2.5l-0.1,0.1l-8.9,7.8l9.8,9.6c0.4,0.3,0.5,0.8,0.5,1.2c0,0.5-0.2,0.9-0.5,1.2
		C191.1,32.8,190.7,33,190.2,33z">
  </path>
  <path class="st1" d="M95.9,33.3c-1,0-1.8-0.8-1.8-1.8V19.4c0-4.2-2.4-6.7-6.4-6.7c-4,0-6.4,2.5-6.4,6.7v12.1c0,1-0.8,1.8-1.8,1.8
		c-1,0-1.8-0.7-1.8-1.8V19.1c0-5.9,3.8-9.6,9.7-9.6H88c5.9,0,9.7,3.8,9.7,9.6v12.4C97.7,32.5,97,33.3,95.9,33.3z">
  </path>
  <path class="st1" d="M262.5,33.3c-6.6,0-11.6-5.1-11.6-11.9v-0.1c0-6.7,4.9-11.9,11.2-11.9c6.3,0,10.8,5,10.8,11.8
		c0,0.9-0.8,1.7-1.8,1.7h-12.1c-1,0-1.7-0.7-1.7-1.6c0-0.9,0.7-1.6,1.7-1.6h10.1c-0.5-3.4-2.6-7-7.2-7c-3.8,0-6.8,2.9-7.4,7.1
		l-0.1,0.7c-0.1,0.7-0.1,1.4,0,2v0c0.4,4.4,3.7,7.5,7.9,7.5c2.6,0,4.7-0.9,6.7-2.8c0.4-0.3,0.8-0.5,1.2-0.5c1,0,1.8,0.7,1.8,1.7
		c0,0.3-0.1,0.8-0.6,1.2C269,32.2,266.3,33.3,262.5,33.3z">
  </path>
 </g>
</svg>